<svg xmlns="http://www.w3.org/2000/svg" viewBox="0 0 402.37 90.45"><defs><style>.cls-1{fill:#37374e;}</style></defs><title>company_name</title><g id="Layer_2" data-name="Layer 2"><g id="Layer_1-2" data-name="Layer 1"><path class="cls-1" d="M59.05,1V33.32H77.93l-1.19,6.22H51.86V1Z"/><path class="cls-1" d="M113.14,39.54V12l-8.76,16.66h-6L89.56,12.39V39.54H82.36V1h8L101.62,22,112.33,1h8V39.54Z"/><path class="cls-1" d="M143.32,40.51A27.11,27.11,0,0,1,135,39.43a11.53,11.53,0,0,1-5.19-3.27,12.14,12.14,0,0,1-2.65-5.52,36.5,36.5,0,0,1-.73-7.76V17.63a36.55,36.55,0,0,1,.7-7.57,12.26,12.26,0,0,1,2.6-5.52,11.82,11.82,0,0,1,5.17-3.38A25.73,25.73,0,0,1,143.32,0a27.37,27.37,0,0,1,8.38,1.08,11.54,11.54,0,0,1,5.22,3.27,12.15,12.15,0,0,1,2.65,5.52,36.5,36.5,0,0,1,.73,7.76v5.25a36.55,36.55,0,0,1-.7,7.57A12.27,12.27,0,0,1,157,36a11.81,11.81,0,0,1-5.19,3.38A26,26,0,0,1,143.32,40.51Zm0-6.11a21.36,21.36,0,0,0,4.76-.43A5.23,5.23,0,0,0,151,32.29a7.39,7.39,0,0,0,1.46-3.54,36.07,36.07,0,0,0,.41-6V17.79a35.66,35.66,0,0,0-.41-6A7.58,7.58,0,0,0,151,8.25a5.18,5.18,0,0,0-2.89-1.7,26.42,26.42,0,0,0-9.52,0,5.24,5.24,0,0,0-2.89,1.68,7.21,7.21,0,0,0-1.43,3.54,38.55,38.55,0,0,0-.38,6v4.92a38.09,38.09,0,0,0,.38,6,7.38,7.38,0,0,0,1.43,3.57,5.16,5.16,0,0,0,2.89,1.7A21.35,21.35,0,0,0,143.32,34.4Z"/><path class="cls-1" d="M187.56,29.31H172.63l-3.57,10.22h-7.19L176.2,1h8.22l14.33,38.51h-7.57Zm-13-5.84h11L180.09,7.79Z"/><path class="cls-1" d="M207.78,39.54v-16L193.72,1h8l9.79,16.55L221.14,1h7.79l-14,22.5v16Z"/><path class="cls-1" d="M260.14,1l-1.24,6.22H240.07v9.46h18.5l-1.19,6.22H240.07V33.32h20.12L259,39.54H232.88V1Z"/><path class="cls-1" d="M265.66,1h14.87a26.81,26.81,0,0,1,8.17,1.05,11.71,11.71,0,0,1,5.17,3.16,12,12,0,0,1,2.7,5.3,31.55,31.55,0,0,1,.78,7.46V22.5a30.94,30.94,0,0,1-.78,7.38,12.36,12.36,0,0,1-2.7,5.33,11.67,11.67,0,0,1-5.14,3.25,25.71,25.71,0,0,1-8.09,1.08h-15Zm7.19,32.29h7.35a19.13,19.13,0,0,0,4.52-.46,5.92,5.92,0,0,0,3-1.68,7.35,7.35,0,0,0,1.65-3.38,24.81,24.81,0,0,0,.51-5.57V18.28a24.81,24.81,0,0,0-.51-5.57,7.35,7.35,0,0,0-1.65-3.38,5.77,5.77,0,0,0-3-1.65,20.31,20.31,0,0,0-4.52-.43h-7.35Z"/><path class="cls-1" d="M58.76,46.75l-1.25,6.36h-19v9.68H57.18L56,69.14H38.54V79.76H58.82l-1.2,6.36H31.29V46.75Z"/><path class="cls-1" d="M80.33,52.72a22.24,22.24,0,0,0-4.77.41,5,5,0,0,0-2.86,1.66,7.05,7.05,0,0,0-1.39,3.46A37.61,37.61,0,0,0,71,64v4.31a32.39,32.39,0,0,0,.41,5.7,7.26,7.26,0,0,0,1.47,3.46,5.32,5.32,0,0,0,2.89,1.69,20.55,20.55,0,0,0,4.71.44h4.22l2.67,0,3.3-.08-1.2,6.36Q86.22,86,84,86H80.22a29,29,0,0,1-8-.94A11.32,11.32,0,0,1,67,82a11.79,11.79,0,0,1-2.78-5.45,35.82,35.82,0,0,1-.82-8.29V64a33.94,33.94,0,0,1,.87-8.35,12,12,0,0,1,2.86-5.45,11.12,11.12,0,0,1,5.18-3,29.69,29.69,0,0,1,7.82-.88h4.17q2.32,0,6,.11l-1.2,6.36q-1.85-.05-4.28-.08Z"/><path class="cls-1" d="M129.82,46.75V86.12h-7.25V69.2H105.13V86.12H97.88V46.75h7.25V62.84h17.44V46.75Z"/><path class="cls-1" d="M144.64,46.75l18.59,27.31V46.75h7.19V86.12H164.1L145.62,59V86.12h-7.25V46.75Z"/><path class="cls-1" d="M194,87.11A27,27,0,0,1,185.57,86a11.6,11.6,0,0,1-5.23-3.35A12.49,12.49,0,0,1,177.66,77a37.83,37.83,0,0,1-.74-7.93V63.72a37.89,37.89,0,0,1,.71-7.74,12.61,12.61,0,0,1,2.62-5.64,11.89,11.89,0,0,1,5.21-3.46A25.59,25.59,0,0,1,194,45.7a27.22,27.22,0,0,1,8.45,1.11,11.61,11.61,0,0,1,5.26,3.35,12.5,12.5,0,0,1,2.67,5.64,37.84,37.84,0,0,1,.74,7.93v5.36a37.88,37.88,0,0,1-.71,7.74,12.61,12.61,0,0,1-2.62,5.64,11.88,11.88,0,0,1-5.23,3.46A25.86,25.86,0,0,1,194,87.11Zm0-6.25a21.24,21.24,0,0,0,4.8-.44,5.26,5.26,0,0,0,2.92-1.71,7.61,7.61,0,0,0,1.47-3.62,37.41,37.41,0,0,0,.41-6.17v-5a37,37,0,0,0-.41-6.11,7.82,7.82,0,0,0-1.47-3.65,5.21,5.21,0,0,0-2.92-1.74,26.25,26.25,0,0,0-9.59,0,5.26,5.26,0,0,0-2.92,1.71,7.43,7.43,0,0,0-1.44,3.62,39.9,39.9,0,0,0-.38,6.16v5a39.43,39.43,0,0,0,.38,6.11,7.61,7.61,0,0,0,1.44,3.65,5.19,5.19,0,0,0,2.92,1.74A21.22,21.22,0,0,0,194,80.87Z"/><path class="cls-1" d="M225.15,46.75v33h19L243,86.12H217.9V46.75Z"/><path class="cls-1" d="M264.34,87.11A27,27,0,0,1,255.92,86a11.6,11.6,0,0,1-5.23-3.35A12.48,12.48,0,0,1,248,77a37.83,37.83,0,0,1-.74-7.93V63.72A37.89,37.89,0,0,1,248,56a12.61,12.61,0,0,1,2.62-5.64,11.9,11.9,0,0,1,5.21-3.46,25.6,25.6,0,0,1,8.53-1.19,27.23,27.23,0,0,1,8.45,1.11A11.61,11.61,0,0,1,278,50.15a12.49,12.49,0,0,1,2.67,5.64,37.83,37.83,0,0,1,.74,7.93v5.36a38,38,0,0,1-.71,7.74,12.63,12.63,0,0,1-2.62,5.64,11.89,11.89,0,0,1-5.23,3.46A25.85,25.85,0,0,1,264.34,87.11Zm0-6.25a21.23,21.23,0,0,0,4.8-.44,5.26,5.26,0,0,0,2.92-1.71,7.6,7.6,0,0,0,1.47-3.62,37.39,37.39,0,0,0,.41-6.17v-5a37,37,0,0,0-.41-6.11,7.81,7.81,0,0,0-1.47-3.65,5.2,5.2,0,0,0-2.92-1.74,26.25,26.25,0,0,0-9.59,0,5.26,5.26,0,0,0-2.92,1.71,7.43,7.43,0,0,0-1.44,3.62,40,40,0,0,0-.38,6.16v5a39.56,39.56,0,0,0,.38,6.11,7.61,7.61,0,0,0,1.44,3.65,5.19,5.19,0,0,0,2.92,1.74A21.23,21.23,0,0,0,264.34,80.87Z"/><path class="cls-1" d="M317.37,64.83V80.59a6.9,6.9,0,0,1-1,4.09,3.93,3.93,0,0,1-3.13,1.38l-1.64,0q-1.47,0-3.19,0h-4.82a28.75,28.75,0,0,1-8.23-1,11.21,11.21,0,0,1-5.18-3.1,12,12,0,0,1-2.7-5.28,31.84,31.84,0,0,1-.79-7.6V63.67a32.19,32.19,0,0,1,.76-7.41,11.55,11.55,0,0,1,2.75-5.34,12.29,12.29,0,0,1,5.4-3.21,29.14,29.14,0,0,1,8.64-1.08q3.38,0,6.08,0l5.8.08L315,53.11,310.88,53l-3,0h-4a23,23,0,0,0-4.82.41A5.46,5.46,0,0,0,296.08,55a6.43,6.43,0,0,0-1.44,3.26,32.2,32.2,0,0,0-.38,5.53V69a29.41,29.41,0,0,0,.44,5.67,6.76,6.76,0,0,0,1.47,3.26A5,5,0,0,0,299,79.4a23.22,23.22,0,0,0,4.5.36h6.65V70.69h-6.6l1.2-5.86Z"/><path class="cls-1" d="M332.77,46.75V86.12h-7.25V46.75Z"/><path class="cls-1" d="M367.7,46.75l-1.25,6.36h-19v9.68h18.64l-1.2,6.36H347.47V79.76h20.28l-1.2,6.36H340.22V46.75Z"/><path class="cls-1" d="M392.83,63.45a19.26,19.26,0,0,1,4.52,1.36A8.17,8.17,0,0,1,400.29,67a8.28,8.28,0,0,1,1.58,3.15,16.26,16.26,0,0,1,.49,4.2v.88a14.39,14.39,0,0,1-.74,4.87,7.56,7.56,0,0,1-2.48,3.43,11.51,11.51,0,0,1-4.61,2,32.14,32.14,0,0,1-7.11.66h-5.26q-3.19,0-8.37-.11l1.14-6.25,3.9.08,3.22,0h5.48a25.55,25.55,0,0,0,3.73-.22,5.78,5.78,0,0,0,2.29-.77,2.73,2.73,0,0,0,1.14-1.47,7.69,7.69,0,0,0,.3-2.35,11.33,11.33,0,0,0-.16-2.07,2.94,2.94,0,0,0-.68-1.44,3.68,3.68,0,0,0-1.47-.94,14.66,14.66,0,0,0-2.53-.64L383.56,69a18.84,18.84,0,0,1-4.82-1.38,8.54,8.54,0,0,1-3-2.18,7.21,7.21,0,0,1-1.5-3.07,18,18,0,0,1-.41-4v-1a12.43,12.43,0,0,1,.76-4.48,7.8,7.8,0,0,1,2.45-3.35,12.07,12.07,0,0,1,4.44-2.1,26.33,26.33,0,0,1,6.79-.75h5.61l3.22,0,4.09.08L400.08,53q-4.09-.11-6.9-.11h-5.26a21,21,0,0,0-3.38.22,5.16,5.16,0,0,0-2.07.75,2.73,2.73,0,0,0-1.06,1.41,7,7,0,0,0-.3,2.21,9.55,9.55,0,0,0,.16,1.94,2.84,2.84,0,0,0,.65,1.33,3.59,3.59,0,0,0,1.42.91,11.45,11.45,0,0,0,2.4.58Z"/><polygon class="cls-1" points="11.53 46.73 11.49 46.75 11.49 46.75 11.49 46.75 11.29 46.86 0 53.55 11.56 53.35 11.56 53.33 16.66 53.33 16.66 90.45 24.07 85.83 24.07 46.78 23.96 46.78 23.96 46.73 11.53 46.73"/><polygon class="cls-1" points="31.32 1.03 22 1.03 3.33 44.94 14.45 38.13 20.23 23.47 20.15 23.47 26.41 7.79 39.3 39.54 47.59 39.54 31.32 1.03"/></g></g></svg>