<svg xmlns="http://www.w3.org/2000/svg" viewBox="0 0 24.2 42.68"><defs><style>.cls-1{fill:#ffffff;}</style></defs><title>connections</title><g id="Layer_2" data-name="Layer 2"><g id="Layer_1-2" data-name="Layer 1"><path class="cls-1" d="M22.14,18.73l-.21,0-7.7-15.3a2.06,2.06,0,1,0-3.1-.08L2.37,18.85a2,2,0,0,0-.31,0A2.06,2.06,0,1,0,4,21.61H9.43a2.05,2.05,0,0,0,1.33,1.28V38.7a2.06,2.06,0,1,0,1.47,0V22.8a2.06,2.06,0,1,0-2.76-2.66H4a2,2,0,0,0-.34-.57L12.41,4.09a2,2,0,0,0,.31,0l.21,0,7.7,15.3a2,2,0,0,0-.43.74H16.73l-1.19,1.47h4.72a2.06,2.06,0,1,0,1.89-2.89Z"/></g></g></svg>