<svg xmlns="http://www.w3.org/2000/svg" viewBox="0 0 29.64 33.7"><defs><style>.cls-1{fill:#ffffff;}</style></defs><title>cyberSecurity</title><g id="Layer_2" data-name="Layer 2"><g id="Layer_1-2" data-name="Layer 1"><path class="cls-1" d="M14.87,0,0,3.73l0,.56c0,.56.57,13.81,3.69,19.28,3.45,6,10.67,10,11,10.12l0-.05V32.11c-1.81-1.08-7.11-4.52-9.8-9.22S1.58,7.4,1.44,4.8L14.87,1.43,28.2,4.81c-.14,2.6-.87,13.52-3.48,18.08a18.64,18.64,0,0,1-2.18,3l0,2a21.61,21.61,0,0,0,3.35-4.34c3.12-5.47,3.67-18.72,3.69-19.28l0-.56Z"/></g></g></svg>