<svg xmlns="http://www.w3.org/2000/svg" viewBox="0 0 40.79 22.58"><defs><style>.cls-1{fill:#ffffff;}</style></defs><title>edutech</title><g id="Layer_2" data-name="Layer 2"><g id="Layer_1-2" data-name="Layer 1"><line class="cls-1" x1="37.22" y1="9.07" x2="37.22" y2="18.55"/><path class="cls-1" d="M20.42,22.58c-6,0-12.46-1.71-12.46-4.87v-7.2H9.35v7.2c0,1.45,4.21,3.48,11.07,3.48s11.07-2,11.07-3.48V10.78h1.39v6.93C32.88,20.87,26.46,22.58,20.42,22.58Z"/><polygon class="cls-1" points="37.91 16.22 37.91 9.07 36.52 9.07 36.52 18.13 37.91 16.22"/><path class="cls-1" d="M27.36,11.76l-6.68,2.62L3.87,8,20.59,1.49,37,8l-5.55,2.18v1.49L40.79,8,20.59,0,0,8l20.68,7.89,8.17-3.21Z"/></g></g></svg>