<svg xmlns="http://www.w3.org/2000/svg" viewBox="0 0 32.19 26.26"><defs><style>.cls-1{fill:#ffffff;}</style></defs><title>finance</title><g id="Layer_2" data-name="Layer 2"><g id="Layer_1-2" data-name="Layer 1"><path class="cls-1" d="M30.65,10h-.77V4.19A4.19,4.19,0,0,0,25.69,0H4.19A4.19,4.19,0,0,0,0,4.19V22.07a4.19,4.19,0,0,0,4.19,4.19H25.69a4.19,4.19,0,0,0,4.19-4.19V15.64h.77a1.53,1.53,0,0,0,1.53-1.53v-2.6A1.53,1.53,0,0,0,30.65,10Zm.06,4.13a.07.07,0,0,1-.06.06h-2.3l0,1.46h0v.46h0v6a2.72,2.72,0,0,1-2.72,2.72H4.19a2.72,2.72,0,0,1-2.72-2.72V4.19A2.72,2.72,0,0,1,4.19,1.47H25.69a2.72,2.72,0,0,1,2.72,2.72l0,5.79H23.28a1.53,1.53,0,0,0-1.53,1.53v2.6a1.53,1.53,0,0,0,1.53,1.53h2.78l.37-1.47H23.28a.07.07,0,0,1-.06-.06v-2.6a.07.07,0,0,1,.06-.06h7.37a.07.07,0,0,1,.06.06Z"/></g></g></svg>