<svg xmlns="http://www.w3.org/2000/svg" viewBox="0 0 33.41 23.83"><defs><style>.cls-1{fill:#ffffff;}</style></defs><title>finTech</title><g id="Layer_2" data-name="Layer 2"><g id="Layer_1-2" data-name="Layer 1"><path class="cls-1" d="M29.92,0H3.49A3.49,3.49,0,0,0,0,3.49V8.06H1.26V3.49A2.23,2.23,0,0,1,3.49,1.26H29.92a2.23,2.23,0,0,1,2.23,2.23V20.34a2.23,2.23,0,0,1-2.23,2.23H3.49a2.23,2.23,0,0,1-2.23-2.23V12.71L0,11v9.32a3.49,3.49,0,0,0,3.49,3.49H29.92a3.49,3.49,0,0,0,3.49-3.49V3.49A3.49,3.49,0,0,0,29.92,0Z"/><polygon class="cls-1" points="28.43 5.39 0.88 5.39 0.88 8.08 27.89 8.08 28.43 5.39"/><rect class="cls-1" x="32.16" y="5.39" width="0.38" height="2.69"/></g></g></svg>