<svg xmlns="http://www.w3.org/2000/svg" viewBox="0 0 43.15 42.39"><defs><style>.cls-1{fill:#ffffff;}</style></defs><title>hr</title><g id="Layer_2" data-name="Layer 2"><g id="Layer_1-2" data-name="Layer 1"><path class="cls-1" d="M38.52,0H17.3a4.63,4.63,0,0,0-4.63,4.63V20.84H3.17A3.18,3.18,0,0,0,0,24v10.5a3.17,3.17,0,0,0,2.92,3.17L1.56,42.39l8-4.67,6.95,0a3.18,3.18,0,0,0,3.17-3.17V26l8.86,0,11.87,7-2-7h.18a4.63,4.63,0,0,0,4.63-4.63V4.63A4.63,4.63,0,0,0,38.52,0Zm3.16,21.39a3.17,3.17,0,0,1-3.19,3.16l-2.07.1,1.52,5.24-9.05-5.31-.08.14V24.6l-9.6,0h-1l0,10a1.71,1.71,0,0,1-1.71,1.7l-7.21,0-.19,0L4,39.26l.86-3-1.68-.08a1.71,1.71,0,0,1-1.7-1.7V24a1.71,1.71,0,0,1,1.7-1.7H15.7l.78-1.47H14.14V4.63A3.16,3.16,0,0,1,17.3,1.47H38.52a3.16,3.16,0,0,1,3.16,3.16Z"/></g></g></svg>