<svg xmlns="http://www.w3.org/2000/svg" viewBox="0 0 25.65 25.65"><defs><style>.cls-1{fill:#ffffff;}</style></defs><title>linkedIn</title><g id="Layer_2" data-name="Layer 2"><g id="Layer_1-2" data-name="Layer 1"><path class="cls-1" d="M12.82,5.81"/><path class="cls-1" d="M25.65,19.34v-13c0-.06,0-.12,0-.18L24.15,7.62V19.34a4.82,4.82,0,0,1-4.82,4.82h-13A4.82,4.82,0,0,1,1.5,19.34v-13A4.82,4.82,0,0,1,6.31,1.5H18.57L20,0a6.34,6.34,0,0,0-.69,0h-13A6.32,6.32,0,0,0,0,6.31v13a6.32,6.32,0,0,0,6.31,6.31h13A6.32,6.32,0,0,0,25.65,19.34Z"/><path class="cls-1" d="M7,8.9H7A1.69,1.69,0,0,1,5.2,7.2,1.71,1.71,0,0,1,7,5.5,1.7,1.7,0,1,1,7,8.9ZM8.66,20.08H5.39V10.24H8.66Zm11.78,0H17.18V14.82c0-1.32-.48-2.22-1.66-2.22a1.79,1.79,0,0,0-1.68,1.19,2.46,2.46,0,0,0-.11.8v5.49H10.47c0-8.91,0-9.84,0-9.84h3.27v1.43h0a3.24,3.24,0,0,1,3-1.66c2.15,0,3.76,1.41,3.76,4.43Z"/></g></g></svg>