<svg xmlns="http://www.w3.org/2000/svg" viewBox="0 0 26.16 41.27"><defs><style>.cls-1{fill:#ffffff;}</style></defs><title>locations</title><g id="Layer_2" data-name="Layer 2"><g id="Layer_1-2" data-name="Layer 1"><path class="cls-1" d="M20.09,13.08a7,7,0,1,0-7,7A7,7,0,0,0,20.09,13.08Zm-12.54,0a5.54,5.54,0,1,1,5.54,5.54A5.54,5.54,0,0,1,7.54,13.08Z"/><path class="cls-1" d="M13.08,0A13.1,13.1,0,0,0,0,13.08c0,4.69,5.44,15.05,9.14,21.55l1-1.18c-3.61-6.39-8.7-16.14-8.7-20.37a11.61,11.61,0,1,1,23.22,0c0,4.77-6.46,16.55-10,22.64h0l-.64,1.07-1,1.66h0l-.85,1.43.23.37.62,1,.62-1c.51-.82,12.46-20.23,12.46-27.18A13.1,13.1,0,0,0,13.08,0Z"/></g></g></svg>