<?xml version="1.0" standalone="no"?>
<!DOCTYPE svg PUBLIC "-//W3C//DTD SVG 20010904//EN"
 "http://www.w3.org/TR/2001/REC-SVG-20010904/DTD/svg10.dtd">
<svg version="1.0" xmlns="http://www.w3.org/2000/svg"
 width="700.000000pt" height="700.000000pt" viewBox="0 0 700.000000 700.000000"
 preserveAspectRatio="xMidYMid meet">
<metadata>
Created by potrace 1.11, written by Peter Selinger 2001-2013
</metadata>
<g transform="translate(0.000000,700.000000) scale(0.100000,-0.100000)"
fill="#000000" stroke="none">
<path d="M3024 6180 c-32 -74 -117 -274 -190 -445 -72 -170 -202 -476 -289
-680 -172 -405 -183 -431 -196 -460 -65 -146 -209 -493 -209 -502 0 -7 -4 -13
-10 -13 -5 0 -10 -6 -10 -14 0 -11 -26 -74 -95 -231 -7 -16 -57 -133 -110
-260 -53 -126 -123 -291 -155 -365 -32 -74 -110 -259 -174 -410 -65 -151 -123
-288 -131 -305 -7 -16 -32 -75 -55 -130 -23 -55 -48 -113 -55 -130 -8 -16 -73
-169 -145 -340 -73 -170 -138 -323 -145 -340 -47 -103 -175 -414 -175 -423 0
-7 -4 -12 -10 -12 -5 0 -10 -5 -10 -12 0 -10 -67 -173 -120 -293 -33 -75 -50
-118 -47 -121 2 -3 407 239 487 291 19 12 73 45 120 73 47 27 114 68 150 90
36 23 76 47 90 55 81 44 568 343 581 356 9 9 33 61 54 116 21 55 44 114 51
130 7 17 94 241 193 500 100 259 185 479 190 490 12 27 23 58 26 71 2 6 10 27
18 45 9 19 22 52 30 74 21 59 215 555 232 592 8 17 15 36 15 42 0 6 4 19 10
29 5 9 49 116 96 237 165 418 256 650 270 681 7 17 42 105 78 195 180 460 258
655 266 663 6 6 12 2 16 -10 3 -10 83 -210 176 -444 94 -234 193 -481 220
-550 27 -69 55 -138 63 -155 15 -34 349 -866 375 -935 9 -25 94 -236 189 -470
94 -234 267 -663 384 -955 l213 -530 532 -3 c293 -1 532 0 532 2 0 4 -27 69
-46 111 -12 28 -55 129 -266 630 -44 105 -86 204 -93 220 -7 17 -32 75 -55
130 -50 119 -53 127 -78 185 -11 25 -57 133 -102 240 -44 107 -87 209 -95 225
-7 17 -63 149 -125 295 -61 146 -129 306 -150 355 -21 50 -82 194 -135 320
-53 127 -108 254 -121 283 -13 29 -24 55 -24 58 0 3 -9 24 -19 47 -19 41 -244
573 -346 819 -29 69 -60 142 -69 162 -29 65 -43 98 -202 476 -86 206 -159 377
-161 380 -3 3 -269 5 -593 5 l-589 0 -57 -135z"/>
</g>
</svg>
