<svg xmlns="http://www.w3.org/2000/svg" viewBox="0 0 34.86 44.7"><defs><style>.cls-1{fill:#ffffff;}</style></defs><title>search</title><g id="Layer_2" data-name="Layer 2"><g id="Layer_1-2" data-name="Layer 1"><path class="cls-1" d="M31.25,12.6a9,9,0,1,0-9,9A9,9,0,0,0,31.25,12.6Zm-9,7.52a7.52,7.52,0,1,1,7.52-7.52A7.53,7.53,0,0,1,22.26,20.12Z"/><path class="cls-1" d="M22.26,0A12.58,12.58,0,0,0,13,21.14l0,0,1.2,1.25,2.25,1.68L4.28,42.54,2,40.63l10.54-16-1.55-.32L0,40.93,4.61,44.7,18.06,24.33l.85-1.12a11.15,11.15,0,1,1,3.61.51l-1.29,1.43c.34,0,.69.05,1,.05a12.6,12.6,0,0,0,0-25.2Z"/></g></g></svg>