<svg xmlns="http://www.w3.org/2000/svg" viewBox="0 0 212.32 18.44">
  <title>Identify, Guide, Grow</title>
  <g>
    <path d="M2.66.66V14.9H0V.66z" />
    <path d="M9.68 14.9a8.83 8.83 0 0 1-2.33-.26 3.18 3.18 0 0 1-1.5-.85 3.38 3.38 0 0 1-.8-1.54A9.44 9.44 0 0 1 4.83 10v-.88A9.3 9.3 0 0 1 5 6.92a3.58 3.58 0 0 1 .77-1.55 3.18 3.18 0 0 1 1.42-.9 7 7 0 0 1 2.2-.3 6.1 6.1 0 0 1 1.6.2 3 3 0 0 1 1.1.5V0h2.6v13a1.92 1.92 0 0 1-.47 1.45 2.5 2.5 0 0 1-1.68.43zm2.38-2.08V8.58A5.6 5.6 0 0 0 12 7.4a1.3 1.3 0 0 0-.37-.7 1.53 1.53 0 0 0-.72-.34 5.48 5.48 0 0 0-1.14-.1 5 5 0 0 0-1.16.1 1.24 1.24 0 0 0-.7.43 1.75 1.75 0 0 0-.32.85 10.08 10.08 0 0 0-.08 1.4v.87a9.9 9.9 0 0 0 .1 1.5 1.84 1.84 0 0 0 .33.87 1.24 1.24 0 0 0 .7.4 5 5 0 0 0 1.17.12z" />
    <path d="M19.18 10.58a7.07 7.07 0 0 0 .08 1.18 1.2 1.2 0 0 0 1 1.08 5.44 5.44 0 0 0 1.16.1H25.22l-.4 2h-3.5a7.22 7.22 0 0 1-2.32-.32 3.16 3.16 0 0 1-2.2-2.4 8.54 8.54 0 0 1-.2-2v-1.1A9.16 9.16 0 0 1 16.8 7a3.57 3.57 0 0 1 .77-1.55A3.37 3.37 0 0 1 19 4.5a7.34 7.34 0 0 1 2.35-.32 7 7 0 0 1 2.2.3 3.58 3.58 0 0 1 1.4.8 2.9 2.9 0 0 1 .74 1.23 5.2 5.2 0 0 1 .3 1.56v.34a6.34 6.34 0 0 1-.08 1.1 1.53 1.53 0 0 1-.27.68.9.9 0 0 1-.5.32 2.9 2.9 0 0 1-.73.08zm2.16-4.44a4.53 4.53 0 0 0-1.1.1 1.24 1.24 0 0 0-.66.4 1.6 1.6 0 0 0-.32.8 8 8 0 0 0-.08 1.24h4.3v-.46a4.12 4.12 0 0 0-.1-1A1.34 1.34 0 0 0 23 6.6a1.43 1.43 0 0 0-.66-.35 4.23 4.23 0 0 0-1-.1z" />
    <path d="M27.78 14.9V7.82a4.52 4.52 0 0 1 .28-1.68A2.55 2.55 0 0 1 28.92 5a3.85 3.85 0 0 1 1.48-.63 10 10 0 0 1 2.14-.2 6.17 6.17 0 0 1 3.6.83 3.26 3.26 0 0 1 1.14 2.8v7.1h-2.6V8.14a4.65 4.65 0 0 0-.06-.8 1.1 1.1 0 0 0-.27-.57 1.27 1.27 0 0 0-.64-.34 6.26 6.26 0 0 0-2.33 0 1.33 1.33 0 0 0-.65.34 1.07 1.07 0 0 0-.28.57 4.65 4.65 0 0 0-.06.8v6.76z" />
    <path d="M45.2 14.9h-1.62a9.8 9.8 0 0 1-2.07-.18 2.63 2.63 0 0 1-1.27-.63 2.4 2.4 0 0 1-.65-1.22A8.42 8.42 0 0 1 39.4 11V2.08l2.6-.42V4.5h3.74l-.42 2.14H42v4.2a5.57 5.57 0 0 0 .07 1 1.17 1.17 0 0 0 .26.6 1 1 0 0 0 .54.27 4.65 4.65 0 0 0 .9.08h1.85z" />
    <path d="M50 1.56a1.47 1.47 0 0 1-.34 1.1 2.35 2.35 0 0 1-2.4 0 1.47 1.47 0 0 1-.34-1.1 1.48 1.48 0 0 1 .36-1.08 2.3 2.3 0 0 1 2.4 0A1.48 1.48 0 0 1 50 1.56zM47.16 4.5h2.6v10.4h-2.6z" />
    <path d="M56.88 2.14a5.9 5.9 0 0 0-1.12.1 1.48 1.48 0 0 0-.74.34 1.46 1.46 0 0 0-.4.72 5.5 5.5 0 0 0-.14 1.2h3.74l-.42 2.14h-3.32v8.26h-2.6V4.82a8.43 8.43 0 0 1 .26-2.26 3.25 3.25 0 0 1 .86-1.5 3.42 3.42 0 0 1 1.53-.8A9.33 9.33 0 0 1 56.86 0H59l-.42 2.14h-.86z" />
    <path d="M60.46 16.32h3.3a5.14 5.14 0 0 0 1.14-.1 1.7 1.7 0 0 0 .77-.4 1.5 1.5 0 0 0 .43-.74 4.68 4.68 0 0 0 .13-1.2v-.2a4.1 4.1 0 0 1-.43.3 2.9 2.9 0 0 1-.54.25 3.82 3.82 0 0 1-.76.17 8.6 8.6 0 0 1-1.1.06 4.85 4.85 0 0 1-3-.77 3.1 3.1 0 0 1-1-2.64V4.5H62v6.08a5.6 5.6 0 0 0 0 .8 1.13 1.13 0 0 0 .24.57 1.18 1.18 0 0 0 .58.35 3.8 3.8 0 0 0 1.07.12 5.52 5.52 0 0 0 1.16-.1 1.37 1.37 0 0 0 .7-.34 1.27 1.27 0 0 0 .32-.62 4.26 4.26 0 0 0 .1-1V4.5h2.6v9.44a6.9 6.9 0 0 1-.2 2.06 3.08 3.08 0 0 1-.88 1.4 3.67 3.67 0 0 1-1.54.8 9 9 0 0 1-2.28.24h-2.6L60 18.4z" />
    <path d="M85.22 9.22l-9.1 3.5V10.5l6.48-2.4-6.48-2.4V3.48L85.22 7z" />
    <path d="M103.62 7.2v5.7a2.47 2.47 0 0 1-.35 1.48 1.45 1.45 0 0 1-1.15.5h-3.54a10.68 10.68 0 0 1-3-.36 4.1 4.1 0 0 1-1.9-1.12 4.3 4.3 0 0 1-1-1.9 11.37 11.37 0 0 1-.3-2.76v-2a11.47 11.47 0 0 1 .3-2.68 4.16 4.16 0 0 1 1-1.93 4.52 4.52 0 0 1 2-1.16A10.8 10.8 0 0 1 98.8.62H103.13L102.76 3h-4.1a8.6 8.6 0 0 0-1.77.15 2 2 0 0 0-1.1.57 2.3 2.3 0 0 0-.52 1.18 11.5 11.5 0 0 0-.14 2v1.8a10.46 10.46 0 0 0 .16 2 2.43 2.43 0 0 0 .54 1.18 1.86 1.86 0 0 0 1 .54 8.62 8.62 0 0 0 1.65.13h2.5V9.32h-2.46L99 7.2z" />
    <path d="M110.34 15.22a10.08 10.08 0 0 1-2.1-.2 3.84 3.84 0 0 1-1.47-.6 2.53 2.53 0 0 1-.87-1.13 4.57 4.57 0 0 1-.28-1.72V4.5h2.6v6.74a4.76 4.76 0 0 0 .06.8 1.1 1.1 0 0 0 .27.57 1.32 1.32 0 0 0 .64.36 4.43 4.43 0 0 0 1.14.12 4.3 4.3 0 0 0 1.14-.12 1.3 1.3 0 0 0 .63-.35 1.1 1.1 0 0 0 .28-.56 4.55 4.55 0 0 0 .06-.8V4.5H115v7.08a3.22 3.22 0 0 1-1.15 2.83 6.22 6.22 0 0 1-3.5.82z" />
    <path d="M120 1.56a1.47 1.47 0 0 1-.34 1.1 2.35 2.35 0 0 1-2.4 0 1.47 1.47 0 0 1-.34-1.1 1.48 1.48 0 0 1 .34-1.08 2.3 2.3 0 0 1 2.4 0 1.48 1.48 0 0 1 .34 1.08zm-2.84 2.94h2.6v10.4h-2.6z" />
    <path d="M126.54 14.9a8.83 8.83 0 0 1-2.33-.26 3.2 3.2 0 0 1-1.48-.85 3.38 3.38 0 0 1-.8-1.54 9.44 9.44 0 0 1-.24-2.3v-.84a9.3 9.3 0 0 1 .23-2.2 3.57 3.57 0 0 1 .78-1.55 3.18 3.18 0 0 1 1.42-.9 7 7 0 0 1 2.16-.3 6.1 6.1 0 0 1 1.57.2 3 3 0 0 1 1.1.5V0h2.6v13a1.93 1.93 0 0 1-.47 1.45 2.5 2.5 0 0 1-1.68.43zm2.38-2.08V8.58a5.58 5.58 0 0 0-.1-1.17 1.32 1.32 0 0 0-.37-.7 1.53 1.53 0 0 0-.72-.34 5.47 5.47 0 0 0-1.15-.1 5 5 0 0 0-1.16.1 1.25 1.25 0 0 0-.7.43 1.76 1.76 0 0 0-.32.85 10.08 10.08 0 0 0-.08 1.4v.87a10 10 0 0 0 .1 1.5 1.83 1.83 0 0 0 .33.87 1.24 1.24 0 0 0 .7.4 5 5 0 0 0 1.17.12z" />
    <path d="M136 10.58a7.07 7.07 0 0 0 .08 1.18 1.2 1.2 0 0 0 1 1.08 5.45 5.45 0 0 0 1.16.1H142.06l-.4 2h-3.54a7.22 7.22 0 0 1-2.34-.32 3.16 3.16 0 0 1-2.2-2.4 8.6 8.6 0 0 1-.2-2v-1.1a9.13 9.13 0 0 1 .28-2.12 3.57 3.57 0 0 1 .77-1.55 3.37 3.37 0 0 1 1.48-1 7.34 7.34 0 0 1 2.36-.32 7 7 0 0 1 2.2.3 3.57 3.57 0 0 1 1.4.8 2.9 2.9 0 0 1 .74 1.23 5.18 5.18 0 0 1 .22 1.55v.4a6.34 6.34 0 0 1-.08 1.1 1.52 1.52 0 0 1-.27.68.9.9 0 0 1-.5.32 2.9 2.9 0 0 1-.73.08zm2.16-4.44a4.54 4.54 0 0 0-1.1.1 1.24 1.24 0 0 0-.66.4 1.6 1.6 0 0 0-.32.8 8 8 0 0 0-.08 1.24h4.3v-.46a4.12 4.12 0 0 0-.1-1 1.35 1.35 0 0 0-.34-.64 1.43 1.43 0 0 0-.66-.35 4.23 4.23 0 0 0-1-.1z" />
    <path d="M158.9 9.22l-9.1 3.5V10.5l6.48-2.4-6.48-2.4V3.48L158.9 7z" />
    <path d="M177.3 7.2v5.7a2.47 2.47 0 0 1-.35 1.48 1.45 1.45 0 0 1-1.15.5h-3.54a10.68 10.68 0 0 1-3-.36 4.12 4.12 0 0 1-1.9-1.12 4.3 4.3 0 0 1-1-1.9 11.32 11.32 0 0 1-.3-2.76v-2a11.5 11.5 0 0 1 .3-2.68 4.16 4.16 0 0 1 1-1.93 4.52 4.52 0 0 1 2-1.16 10.8 10.8 0 0 1 3.14-.35H176.86L176.44 3h-4.1a8.6 8.6 0 0 0-1.77.15 2 2 0 0 0-1.08.57 2.3 2.3 0 0 0-.5 1.1 11.44 11.44 0 0 0-.14 2V8.7a10.42 10.42 0 0 0 .16 2 2.43 2.43 0 0 0 .54 1.18 1.85 1.85 0 0 0 1 .54 8.63 8.63 0 0 0 1.65.13h2.45V9.32h-2.42l.44-2.12z" />
    <path d="M181.9 14.9h-2.6V8.06a4.5 4.5 0 0 1 .28-1.7 2.6 2.6 0 0 1 .82-1.1 3.44 3.44 0 0 1 1.32-.6 7.52 7.52 0 0 1 1.78-.2H185.86l-.42 2.16H183.76a3.3 3.3 0 0 0-1 .12 1.24 1.24 0 0 0-.56.35 1.1 1.1 0 0 0-.25.57 6 6 0 0 0 0 .83z" />
    <path d="M191.56 4.18a9.4 9.4 0 0 1 2.28.24 3.42 3.42 0 0 1 1.54.8 3.3 3.3 0 0 1 .87 1.54 9 9 0 0 1 .27 2.4v1.08a9 9 0 0 1-.27 2.4 3.3 3.3 0 0 1-.87 1.53 3.4 3.4 0 0 1-1.54.8 9.33 9.33 0 0 1-2.28.25 9.43 9.43 0 0 1-2.3-.24 3.4 3.4 0 0 1-1.54-.8 3.27 3.27 0 0 1-.87-1.54 9 9 0 0 1-.27-2.4V9.16a9 9 0 0 1 .27-2.4 3.27 3.27 0 0 1 .87-1.53 3.42 3.42 0 0 1 1.54-.8 9.5 9.5 0 0 1 2.3-.25zm2.32 4.94a8.85 8.85 0 0 0-.1-1.5 1.83 1.83 0 0 0-.35-.86 1.23 1.23 0 0 0-.7-.4 5.58 5.58 0 0 0-1.17-.1 5.74 5.74 0 0 0-1.18.1 1.23 1.23 0 0 0-.7.4 1.84 1.84 0 0 0-.36.87 9 9 0 0 0-.1 1.5v1.17a8.8 8.8 0 0 0 .1 1.48 1.83 1.83 0 0 0 .35.86 1.22 1.22 0 0 0 .7.4 5.66 5.66 0 0 0 1.2.1 5.5 5.5 0 0 0 1.16-.1 1.22 1.22 0 0 0 .7-.4 1.82 1.82 0 0 0 .35-.86 8.67 8.67 0 0 0 .1-1.48z" />
    <path d="M207.94 12.22l1.9-7.72h2.48l-3.08 10.4h-2.6l-1.82-7.26L203 14.9h-2.64l-3-10.4h2.62l1.8 7.68 2-7.68h2.36z" />
  </g>
</svg>