<svg xmlns="http://www.w3.org/2000/svg" viewBox="0 0 212.32 18.44"><defs><style>.cls-1{fill:#ffffff;}</style></defs><title>tagline</title><g id="Layer_2" data-name="Layer 2"><g id="Layer_1-2" data-name="Layer 1"><path class="cls-1" d="M2.66.66V14.9H0V.66Z"/><path class="cls-1" d="M9.68,14.9a8.83,8.83,0,0,1-2.33-.26,3.18,3.18,0,0,1-1.49-.85,3.38,3.38,0,0,1-.8-1.53A9.44,9.44,0,0,1,4.82,10V9.12A9.3,9.3,0,0,1,5,6.91a3.58,3.58,0,0,1,.77-1.54,3.18,3.18,0,0,1,1.42-.9A7,7,0,0,1,9.4,4.18,6.1,6.1,0,0,1,11,4.37a3,3,0,0,1,1.09.49V0h2.6V13a1.92,1.92,0,0,1-.46,1.45,2.49,2.49,0,0,1-1.68.43Zm2.38-2.08V8.58A5.59,5.59,0,0,0,12,7.41a1.31,1.31,0,0,0-.37-.7,1.53,1.53,0,0,0-.72-.35,5.48,5.48,0,0,0-1.15-.1,5,5,0,0,0-1.16.11,1.24,1.24,0,0,0-.69.42,1.75,1.75,0,0,0-.33.86,10.08,10.08,0,0,0-.08,1.41v.86a9.91,9.91,0,0,0,.09,1.49,1.84,1.84,0,0,0,.34.88,1.24,1.24,0,0,0,.7.42,5,5,0,0,0,1.17.11Z"/><path class="cls-1" d="M19.18,10.58a7.07,7.07,0,0,0,.08,1.18,1.21,1.21,0,0,0,1,1.08,5.44,5.44,0,0,0,1.16.1H23q.9,0,2.22,0l-.4,2-1,0H21.32A7.22,7.22,0,0,1,19,14.62a3.16,3.16,0,0,1-2.19-2.39,8.54,8.54,0,0,1-.21-2V9.12A9.16,9.16,0,0,1,16.8,7a3.57,3.57,0,0,1,.77-1.55A3.37,3.37,0,0,1,19,4.5a7.34,7.34,0,0,1,2.35-.32,7,7,0,0,1,2.19.29,3.58,3.58,0,0,1,1.4.81,2.91,2.91,0,0,1,.75,1.23A5.21,5.21,0,0,1,26,8.06V8.4a6.34,6.34,0,0,1-.08,1.11,1.53,1.53,0,0,1-.27.67.9.9,0,0,1-.49.32,2.9,2.9,0,0,1-.74.08Zm2.16-4.44a4.53,4.53,0,0,0-1.1.11,1.24,1.24,0,0,0-.66.4,1.61,1.61,0,0,0-.32.78,8,8,0,0,0-.08,1.25h4.3V8.22a4.12,4.12,0,0,0-.1-1A1.34,1.34,0,0,0,23,6.6a1.43,1.43,0,0,0-.66-.35A4.23,4.23,0,0,0,21.34,6.14Z"/><path class="cls-1" d="M27.78,14.9V7.82a4.52,4.52,0,0,1,.28-1.68A2.55,2.55,0,0,1,28.92,5a3.85,3.85,0,0,1,1.48-.63,10,10,0,0,1,2.14-.2A6.17,6.17,0,0,1,36.15,5a3.26,3.26,0,0,1,1.13,2.81V14.9h-2.6V8.14a4.65,4.65,0,0,0-.06-.8,1.11,1.11,0,0,0-.27-.57,1.27,1.27,0,0,0-.64-.34,6.26,6.26,0,0,0-2.34,0,1.33,1.33,0,0,0-.65.34,1.07,1.07,0,0,0-.28.57,4.65,4.65,0,0,0-.06.8V14.9Z"/><path class="cls-1" d="M45.2,14.9H43.58a9.8,9.8,0,0,1-2.07-.18,2.63,2.63,0,0,1-1.28-.63,2.39,2.39,0,0,1-.65-1.21A8.42,8.42,0,0,1,39.4,11V2.08L42,1.66V4.5h3.74l-.42,2.14H42v4.2a5.57,5.57,0,0,0,.07,1,1.17,1.17,0,0,0,.26.59,1,1,0,0,0,.54.28,4.65,4.65,0,0,0,.89.07h1.86Z"/><path class="cls-1" d="M50,1.56a1.47,1.47,0,0,1-.34,1.09,2.35,2.35,0,0,1-2.4,0,1.47,1.47,0,0,1-.34-1.09A1.48,1.48,0,0,1,47.28.48a2.29,2.29,0,0,1,2.4,0A1.48,1.48,0,0,1,50,1.56ZM47.16,4.5h2.6V14.9h-2.6Z"/><path class="cls-1" d="M56.88,2.14a5.9,5.9,0,0,0-1.12.09,1.48,1.48,0,0,0-.74.35,1.46,1.46,0,0,0-.4.72,5.5,5.5,0,0,0-.14,1.2h3.74L57.8,6.64H54.48V14.9h-2.6V4.82a8.43,8.43,0,0,1,.26-2.26A3.25,3.25,0,0,1,53,1.07,3.42,3.42,0,0,1,54.53.25,9.33,9.33,0,0,1,56.86,0h1.52L59,0l-.42,2.14-.86,0Z"/><path class="cls-1" d="M60.46,16.32l1,0h2.29a5.14,5.14,0,0,0,1.15-.11,1.7,1.7,0,0,0,.77-.38,1.51,1.51,0,0,0,.43-.75,4.68,4.68,0,0,0,.13-1.2v-.2a4.09,4.09,0,0,1-.43.3,2.9,2.9,0,0,1-.54.25,3.82,3.82,0,0,1-.76.17,8.6,8.6,0,0,1-1.11.06,4.85,4.85,0,0,1-3-.77,3.09,3.09,0,0,1-1-2.63V4.5H62v6.08a5.6,5.6,0,0,0,0,.8,1.13,1.13,0,0,0,.24.57,1.18,1.18,0,0,0,.58.35,3.79,3.79,0,0,0,1.07.12,5.52,5.52,0,0,0,1.17-.1,1.37,1.37,0,0,0,.69-.34,1.27,1.27,0,0,0,.33-.62,4.26,4.26,0,0,0,.09-1V4.5h2.6v9.44A6.91,6.91,0,0,1,68.57,16a3.08,3.08,0,0,1-.87,1.4,3.67,3.67,0,0,1-1.54.79,9,9,0,0,1-2.28.25H61.29L60,18.4Z"/><path class="cls-1" d="M85.22,9.22l-9.1,3.5V10.5L82.6,8.1,76.12,5.7V3.48L85.22,7Z"/><path class="cls-1" d="M103.62,7.2v5.7a2.47,2.47,0,0,1-.35,1.48,1.45,1.45,0,0,1-1.15.5H98.58a10.68,10.68,0,0,1-3-.36,4.11,4.11,0,0,1-1.9-1.12,4.31,4.31,0,0,1-1-1.91,11.37,11.37,0,0,1-.29-2.75v-2a11.47,11.47,0,0,1,.28-2.68,4.16,4.16,0,0,1,1-1.93,4.52,4.52,0,0,1,2-1.16A10.81,10.81,0,0,1,98.82.62H101l2.13,0L102.76,3l-1.52,0H98.66a8.6,8.6,0,0,0-1.77.15,2,2,0,0,0-1.08.57,2.3,2.3,0,0,0-.53,1.18,11.49,11.49,0,0,0-.14,2V8.7a10.46,10.46,0,0,0,.16,2,2.43,2.43,0,0,0,.54,1.18,1.86,1.86,0,0,0,1,.54,8.62,8.62,0,0,0,1.65.13H101V9.32H98.54L99,7.2Z"/><path class="cls-1" d="M110.34,15.22a10.08,10.08,0,0,1-2.09-.19,3.84,3.84,0,0,1-1.48-.62,2.53,2.53,0,0,1-.87-1.12,4.57,4.57,0,0,1-.28-1.71V4.5h2.6v6.74a4.76,4.76,0,0,0,.06.8,1.11,1.11,0,0,0,.27.57,1.32,1.32,0,0,0,.64.35,4.43,4.43,0,0,0,1.15.12,4.31,4.31,0,0,0,1.14-.12,1.31,1.31,0,0,0,.63-.35,1.1,1.1,0,0,0,.27-.57,4.55,4.55,0,0,0,.06-.8V4.5H115v7.08a3.22,3.22,0,0,1-1.15,2.83A6.22,6.22,0,0,1,110.34,15.22Z"/><path class="cls-1" d="M120,1.56a1.47,1.47,0,0,1-.34,1.09,2.35,2.35,0,0,1-2.4,0,1.47,1.47,0,0,1-.34-1.09,1.48,1.48,0,0,1,.34-1.08,2.29,2.29,0,0,1,2.4,0A1.48,1.48,0,0,1,120,1.56ZM117.16,4.5h2.6V14.9h-2.6Z"/><path class="cls-1" d="M126.54,14.9a8.83,8.83,0,0,1-2.33-.26,3.19,3.19,0,0,1-1.49-.85,3.38,3.38,0,0,1-.8-1.53,9.44,9.44,0,0,1-.24-2.3V9.12a9.31,9.31,0,0,1,.23-2.21,3.57,3.57,0,0,1,.77-1.54,3.18,3.18,0,0,1,1.42-.9,7,7,0,0,1,2.16-.29,6.1,6.1,0,0,1,1.57.19,3,3,0,0,1,1.09.49V0h2.6V13a1.93,1.93,0,0,1-.46,1.45,2.49,2.49,0,0,1-1.68.43Zm2.38-2.08V8.58a5.58,5.58,0,0,0-.1-1.17,1.32,1.32,0,0,0-.37-.7,1.53,1.53,0,0,0-.72-.35,5.47,5.47,0,0,0-1.15-.1,5,5,0,0,0-1.16.11,1.25,1.25,0,0,0-.69.42,1.76,1.76,0,0,0-.33.86,10.08,10.08,0,0,0-.08,1.41v.86a10,10,0,0,0,.09,1.49,1.83,1.83,0,0,0,.34.88,1.24,1.24,0,0,0,.7.42,5,5,0,0,0,1.17.11Z"/><path class="cls-1" d="M136,10.58a7.07,7.07,0,0,0,.08,1.18,1.21,1.21,0,0,0,1,1.08,5.45,5.45,0,0,0,1.16.1h1.6q.9,0,2.22,0l-.4,2-1,0h-2.54a7.22,7.22,0,0,1-2.34-.32,3.16,3.16,0,0,1-2.19-2.39,8.59,8.59,0,0,1-.21-2V9.12A9.13,9.13,0,0,1,133.66,7a3.57,3.57,0,0,1,.77-1.55,3.37,3.37,0,0,1,1.48-1,7.34,7.34,0,0,1,2.35-.32,7,7,0,0,1,2.19.29,3.57,3.57,0,0,1,1.4.81,2.9,2.9,0,0,1,.75,1.23,5.18,5.18,0,0,1,.22,1.55V8.4a6.34,6.34,0,0,1-.08,1.11,1.52,1.52,0,0,1-.27.67.9.9,0,0,1-.49.32,2.91,2.91,0,0,1-.74.08Zm2.16-4.44a4.54,4.54,0,0,0-1.1.11,1.24,1.24,0,0,0-.66.4,1.6,1.6,0,0,0-.32.78A8,8,0,0,0,136,8.68h4.3V8.22a4.12,4.12,0,0,0-.1-1,1.35,1.35,0,0,0-.34-.64,1.43,1.43,0,0,0-.66-.35A4.23,4.23,0,0,0,138.2,6.14Z"/><path class="cls-1" d="M158.9,9.22l-9.1,3.5V10.5l6.48-2.4L149.8,5.7V3.48L158.9,7Z"/><path class="cls-1" d="M177.3,7.2v5.7a2.47,2.47,0,0,1-.35,1.48,1.45,1.45,0,0,1-1.15.5h-3.54a10.68,10.68,0,0,1-3-.36,4.12,4.12,0,0,1-1.9-1.12,4.3,4.3,0,0,1-1-1.91,11.32,11.32,0,0,1-.29-2.75v-2a11.5,11.5,0,0,1,.28-2.68,4.16,4.16,0,0,1,1-1.93,4.52,4.52,0,0,1,2-1.16A10.81,10.81,0,0,1,172.5.62h2.23l2.13,0L176.44,3l-1.52,0h-2.58a8.6,8.6,0,0,0-1.77.15,2,2,0,0,0-1.08.57A2.31,2.31,0,0,0,169,4.82a11.44,11.44,0,0,0-.14,2V8.7a10.42,10.42,0,0,0,.16,2,2.43,2.43,0,0,0,.54,1.18,1.85,1.85,0,0,0,1,.54,8.63,8.63,0,0,0,1.65.13h2.44V9.32h-2.42l.44-2.12Z"/><path class="cls-1" d="M181.9,14.9h-2.6V8.06a4.51,4.51,0,0,1,.28-1.69,2.61,2.61,0,0,1,.82-1.11,3.44,3.44,0,0,1,1.32-.61,7.52,7.52,0,0,1,1.78-.19h1.3l1.06,0-.42,2.16-.88,0h-.8a3.29,3.29,0,0,0-1,.12,1.24,1.24,0,0,0-.56.35,1.09,1.09,0,0,0-.25.58,6,6,0,0,0,0,.83Z"/><path class="cls-1" d="M191.56,4.18a9.39,9.39,0,0,1,2.28.24,3.42,3.42,0,0,1,1.54.81,3.29,3.29,0,0,1,.87,1.53,9,9,0,0,1,.27,2.4v1.08a9,9,0,0,1-.27,2.4,3.29,3.29,0,0,1-.87,1.53,3.41,3.41,0,0,1-1.54.81,9.33,9.33,0,0,1-2.28.24,9.43,9.43,0,0,1-2.3-.24,3.41,3.41,0,0,1-1.54-.81,3.27,3.27,0,0,1-.87-1.53,9,9,0,0,1-.27-2.4V9.16a9,9,0,0,1,.27-2.4,3.27,3.27,0,0,1,.87-1.53,3.42,3.42,0,0,1,1.54-.81A9.49,9.49,0,0,1,191.56,4.18Zm2.32,4.94a8.85,8.85,0,0,0-.1-1.49,1.83,1.83,0,0,0-.35-.87,1.23,1.23,0,0,0-.7-.4,5.58,5.58,0,0,0-1.17-.1,5.74,5.74,0,0,0-1.18.1,1.23,1.23,0,0,0-.71.4,1.84,1.84,0,0,0-.35.87,9,9,0,0,0-.1,1.49V10.3a8.79,8.79,0,0,0,.1,1.48,1.83,1.83,0,0,0,.35.86,1.22,1.22,0,0,0,.71.4,5.66,5.66,0,0,0,1.18.1,5.51,5.51,0,0,0,1.17-.1,1.22,1.22,0,0,0,.7-.4,1.82,1.82,0,0,0,.35-.86,8.67,8.67,0,0,0,.1-1.48Z"/><path class="cls-1" d="M207.94,12.22l1.9-7.72h2.48l-3.08,10.4h-2.6l-1.82-7.26L203,14.9h-2.64l-3-10.4h2.62l1.8,7.68,2-7.68h2.36Z"/></g></g></svg>